<mxfile host="app.diagrams.net" modified="2023-08-26T03:40:14.935Z" agent="Mozilla/5.0 (Macintosh; Intel Mac OS X 10_15_7) AppleWebKit/537.36 (KHTML, like Gecko) Chrome/115.0.0.0 Safari/537.36 Edg/115.0.1901.188" version="21.6.8" etag="4W5OOAtxFegrx93kmcCt" type="github">
  <diagram name="第 1 页" id="9Ht5S6vPuSeAYrokqiwD">
    <mxGraphModel>
      <root>
        <mxCell id="0" />
        <mxCell id="1" parent="0" />
      </root>
    </mxGraphModel>
  </diagram>
</mxfile>
